<svg width="265" height="38" viewBox="0 0 265 38" fill="none" xmlns="http://www.w3.org/2000/svg">
<g filter="url(#filter0_d_184_300)">
<path d="M4.05078 0.5H6.77539V19.9238L6.54102 23H4.05078V0.5ZM17.4834 14.9434V15.251C17.4834 16.4033 17.3467 17.4727 17.0732 18.459C16.7998 19.4355 16.3994 20.2852 15.8721 21.0078C15.3447 21.7305 14.7002 22.292 13.9385 22.6924C13.1768 23.0928 12.3027 23.293 11.3164 23.293C10.3105 23.293 9.42676 23.1221 8.66504 22.7803C7.91309 22.4287 7.27832 21.9258 6.76074 21.2715C6.24316 20.6172 5.82812 19.8262 5.51562 18.8984C5.21289 17.9707 5.00293 16.9258 4.88574 15.7637V14.416C5.00293 13.2441 5.21289 12.1943 5.51562 11.2666C5.82812 10.3389 6.24316 9.54785 6.76074 8.89355C7.27832 8.22949 7.91309 7.72656 8.66504 7.38477C9.41699 7.0332 10.291 6.85742 11.2871 6.85742C12.2832 6.85742 13.167 7.05273 13.9385 7.44336C14.71 7.82422 15.3545 8.37109 15.8721 9.08398C16.3994 9.79688 16.7998 10.6514 17.0732 11.6475C17.3467 12.6338 17.4834 13.7324 17.4834 14.9434ZM14.7588 15.251V14.9434C14.7588 14.1523 14.6855 13.4102 14.5391 12.7168C14.3926 12.0137 14.1582 11.3984 13.8359 10.8711C13.5137 10.334 13.0889 9.91406 12.5615 9.61133C12.0342 9.29883 11.3848 9.14258 10.6133 9.14258C9.92969 9.14258 9.33398 9.25977 8.82617 9.49414C8.32812 9.72852 7.90332 10.0459 7.55176 10.4463C7.2002 10.8369 6.91211 11.2861 6.6875 11.7939C6.47266 12.292 6.31152 12.8096 6.2041 13.3467V16.877C6.36035 17.5605 6.61426 18.2197 6.96582 18.8545C7.32715 19.4795 7.80566 19.9922 8.40137 20.3926C9.00684 20.793 9.75391 20.9932 10.6426 20.9932C11.375 20.9932 12 20.8467 12.5176 20.5537C13.0449 20.251 13.4697 19.8359 13.792 19.3086C14.124 18.7812 14.3682 18.1709 14.5244 17.4775C14.6807 16.7842 14.7588 16.042 14.7588 15.251ZM23.8555 7.15039V23H21.1309V7.15039H23.8555ZM20.9258 2.94629C20.9258 2.50684 21.0576 2.13574 21.3213 1.83301C21.5947 1.53027 21.9951 1.37891 22.5225 1.37891C23.04 1.37891 23.4355 1.53027 23.709 1.83301C23.9922 2.13574 24.1338 2.50684 24.1338 2.94629C24.1338 3.36621 23.9922 3.72754 23.709 4.03027C23.4355 4.32324 23.04 4.46973 22.5225 4.46973C21.9951 4.46973 21.5947 4.32324 21.3213 4.03027C21.0576 3.72754 20.9258 3.36621 20.9258 2.94629ZM37.9033 19.3379V7.15039H40.6279V23H38.0352L37.9033 19.3379ZM38.416 15.998L39.5439 15.9688C39.5439 17.0234 39.4316 18 39.207 18.8984C38.9922 19.7871 38.6406 20.5586 38.1523 21.2129C37.6641 21.8672 37.0244 22.3799 36.2334 22.751C35.4424 23.1123 34.4805 23.293 33.3477 23.293C32.5762 23.293 31.8682 23.1807 31.2236 22.9561C30.5889 22.7314 30.042 22.3848 29.583 21.916C29.124 21.4473 28.7676 20.8369 28.5137 20.085C28.2695 19.333 28.1475 18.4297 28.1475 17.375V7.15039H30.8574V17.4043C30.8574 18.1172 30.9355 18.708 31.0918 19.1768C31.2578 19.6357 31.4775 20.002 31.751 20.2754C32.0342 20.5391 32.3467 20.7246 32.6885 20.832C33.04 20.9395 33.4014 20.9932 33.7725 20.9932C34.9248 20.9932 35.8379 20.7734 36.5117 20.334C37.1855 19.8848 37.6689 19.2842 37.9619 18.5322C38.2646 17.7705 38.416 16.9258 38.416 15.998ZM47.4688 9.64062V23H44.7588V7.15039H47.3955L47.4688 9.64062ZM52.4199 7.0625L52.4053 9.58203C52.1807 9.5332 51.9658 9.50391 51.7607 9.49414C51.5654 9.47461 51.3408 9.46484 51.0869 9.46484C50.4619 9.46484 49.9102 9.5625 49.4316 9.75781C48.9531 9.95312 48.5479 10.2266 48.2158 10.5781C47.8838 10.9297 47.6201 11.3496 47.4248 11.8379C47.2393 12.3164 47.1172 12.8438 47.0586 13.4199L46.2969 13.8594C46.2969 12.9023 46.3896 12.0039 46.5752 11.1641C46.7705 10.3242 47.0684 9.58203 47.4688 8.9375C47.8691 8.2832 48.377 7.77539 48.9922 7.41406C49.6172 7.04297 50.3594 6.85742 51.2188 6.85742C51.4141 6.85742 51.6387 6.88184 51.8926 6.93066C52.1465 6.96973 52.3223 7.01367 52.4199 7.0625ZM53.9141 15.251V14.9141C53.9141 13.7715 54.0801 12.7119 54.4121 11.7354C54.7441 10.749 55.2227 9.89453 55.8477 9.17188C56.4727 8.43945 57.2295 7.87305 58.1182 7.47266C59.0068 7.0625 60.0029 6.85742 61.1064 6.85742C62.2197 6.85742 63.2207 7.0625 64.1094 7.47266C65.0078 7.87305 65.7695 8.43945 66.3945 9.17188C67.0293 9.89453 67.5127 10.749 67.8447 11.7354C68.1768 12.7119 68.3428 13.7715 68.3428 14.9141V15.251C68.3428 16.3936 68.1768 17.4531 67.8447 18.4297C67.5127 19.4062 67.0293 20.2607 66.3945 20.9932C65.7695 21.7158 65.0127 22.2822 64.124 22.6924C63.2451 23.0928 62.249 23.293 61.1357 23.293C60.0225 23.293 59.0215 23.0928 58.1328 22.6924C57.2441 22.2822 56.4824 21.7158 55.8477 20.9932C55.2227 20.2607 54.7441 19.4062 54.4121 18.4297C54.0801 17.4531 53.9141 16.3936 53.9141 15.251ZM56.624 14.9141V15.251C56.624 16.042 56.7168 16.7891 56.9023 17.4922C57.0879 18.1855 57.3662 18.8008 57.7373 19.3379C58.1182 19.875 58.5918 20.2998 59.1582 20.6123C59.7246 20.915 60.3838 21.0664 61.1357 21.0664C61.8779 21.0664 62.5273 20.915 63.084 20.6123C63.6504 20.2998 64.1191 19.875 64.4902 19.3379C64.8613 18.8008 65.1396 18.1855 65.3252 17.4922C65.5205 16.7891 65.6182 16.042 65.6182 15.251V14.9141C65.6182 14.1328 65.5205 13.3955 65.3252 12.7021C65.1396 11.999 64.8564 11.3789 64.4756 10.8418C64.1045 10.2949 63.6357 9.86523 63.0693 9.55273C62.5127 9.24023 61.8584 9.08398 61.1064 9.08398C60.3643 9.08398 59.71 9.24023 59.1436 9.55273C58.5869 9.86523 58.1182 10.2949 57.7373 10.8418C57.3662 11.3789 57.0879 11.999 56.9023 12.7021C56.7168 13.3955 56.624 14.1328 56.624 14.9141ZM95.1055 15.6318C95.0664 16.5303 94.9297 17.4336 94.6953 18.3418C94.4609 19.2402 94.1094 20.0654 93.6406 20.8174C93.1719 21.5693 92.5615 22.1748 91.8096 22.6338C91.0674 23.083 90.1689 23.3076 89.1143 23.3076C88.4404 23.3076 87.8496 23.1904 87.3418 22.9561C86.8438 22.7119 86.4336 22.3652 86.1113 21.916C85.7988 21.4668 85.5791 20.9248 85.4521 20.29C85.335 19.6553 85.3154 18.9473 85.3936 18.166L86.1406 10.0508H88.2939L87.5469 18.166C87.4883 18.8789 87.5029 19.46 87.5908 19.9092C87.6885 20.3584 87.835 20.7051 88.0303 20.9492C88.2256 21.1836 88.4453 21.3447 88.6895 21.4326C88.9434 21.5205 89.1875 21.5645 89.4219 21.5645C90.0078 21.5645 90.5303 21.4131 90.9893 21.1104C91.4482 20.7979 91.834 20.373 92.1465 19.8359C92.4688 19.2891 92.7178 18.6592 92.8936 17.9463C93.0693 17.2236 93.1768 16.4521 93.2158 15.6318C93.2842 14.1768 93.2158 12.8389 93.0107 11.6182C92.8154 10.3975 92.4785 9.31348 92 8.36621C91.5312 7.41895 90.916 6.61816 90.1543 5.96387C89.3926 5.30957 88.4844 4.81152 87.4297 4.46973C86.375 4.12793 85.1689 3.95703 83.8115 3.95703C82.5811 3.95703 81.4434 4.14746 80.3984 4.52832C79.3633 4.89941 78.4307 5.43652 77.6006 6.13965C76.7803 6.84277 76.0723 7.6875 75.4766 8.67383C74.8906 9.66016 74.4268 10.7734 74.085 12.0137C73.7529 13.2441 73.5576 14.5723 73.499 15.998C73.4307 17.4629 73.5088 18.8105 73.7334 20.041C73.958 21.2617 74.3193 22.3506 74.8174 23.3076C75.3252 24.2744 75.9648 25.0898 76.7363 25.7539C77.5078 26.4277 78.4014 26.9355 79.417 27.2773C80.4326 27.6289 81.5654 27.8047 82.8154 27.8047C83.6748 27.8047 84.5439 27.7021 85.4229 27.4971C86.3115 27.292 87.0537 27.0137 87.6494 26.6621L88.2061 28.332C87.5225 28.7715 86.668 29.0986 85.6426 29.3135C84.627 29.5283 83.665 29.6357 82.7568 29.6357C81.2725 29.6357 79.915 29.4307 78.6846 29.0205C77.4639 28.6201 76.3799 28.0293 75.4326 27.248C74.4951 26.4766 73.7139 25.5342 73.0889 24.4209C72.4639 23.3174 72.0049 22.0576 71.7119 20.6416C71.4189 19.2256 71.3066 17.6777 71.375 15.998C71.4434 14.3965 71.6826 12.8877 72.0928 11.4717C72.5127 10.0557 73.084 8.77148 73.8066 7.61914C74.5293 6.4668 75.3887 5.47559 76.3848 4.64551C77.3906 3.80566 78.5186 3.16113 79.7686 2.71191C81.0283 2.2627 82.3955 2.03809 83.8701 2.03809C85.374 2.03809 86.7363 2.24316 87.957 2.65332C89.1777 3.06348 90.2471 3.6543 91.165 4.42578C92.0928 5.19727 92.8594 6.13965 93.4648 7.25293C94.0703 8.36621 94.5098 9.62598 94.7832 11.0322C95.0664 12.4385 95.1738 13.9717 95.1055 15.6318ZM80.0615 16.877C79.9932 17.5605 79.9932 18.1709 80.0615 18.708C80.1299 19.2451 80.2617 19.6992 80.457 20.0703C80.6523 20.4414 80.9062 20.7246 81.2188 20.9199C81.541 21.1055 81.917 21.1982 82.3467 21.1982C82.6299 21.1982 82.9277 21.1299 83.2402 20.9932C83.5527 20.8467 83.8604 20.6221 84.1631 20.3193C84.4658 20.0166 84.749 19.6211 85.0127 19.1328C85.2764 18.6445 85.4961 18.0586 85.6719 17.375L86.6387 18.4297C86.4141 19.2305 86.1211 19.9336 85.7598 20.5391C85.4082 21.1445 85.0127 21.6523 84.5732 22.0625C84.1338 22.4727 83.665 22.7852 83.167 23C82.6787 23.2051 82.1807 23.3076 81.6729 23.3076C80.96 23.3076 80.335 23.1562 79.7979 22.8535C79.2607 22.541 78.8262 22.1016 78.4941 21.5352C78.1621 20.9688 77.9277 20.2949 77.791 19.5137C77.6641 18.7227 77.6445 17.8438 77.7324 16.877C77.8203 15.8516 78.001 14.9043 78.2744 14.0352C78.5479 13.166 78.8848 12.3896 79.2852 11.7061C79.6953 11.0225 80.1543 10.4414 80.6621 9.96289C81.1797 9.48438 81.7266 9.12305 82.3027 8.87891C82.8789 8.625 83.4697 8.49805 84.0752 8.49805C85.1299 8.49805 85.96 8.6543 86.5654 8.9668C87.1709 9.26953 87.7471 9.63086 88.2939 10.0508L87.0488 11.501C86.7656 11.2275 86.3945 10.9736 85.9355 10.7393C85.4766 10.5049 84.9346 10.3877 84.3096 10.3877C83.7725 10.3877 83.2695 10.5244 82.8008 10.7979C82.332 11.0713 81.9072 11.4814 81.5264 12.0283C81.1553 12.5752 80.8428 13.2539 80.5889 14.0645C80.335 14.8652 80.1592 15.8027 80.0615 16.877ZM101.639 0.5V23H98.9141V0.5H101.639ZM115.335 20.29V12.1309C115.335 11.5059 115.208 10.9639 114.954 10.5049C114.71 10.0361 114.339 9.6748 113.841 9.4209C113.343 9.16699 112.728 9.04004 111.995 9.04004C111.312 9.04004 110.711 9.15723 110.193 9.3916C109.686 9.62598 109.285 9.93359 108.992 10.3145C108.709 10.6953 108.567 11.1055 108.567 11.5449H105.857C105.857 10.9785 106.004 10.417 106.297 9.86035C106.59 9.30371 107.01 8.80078 107.557 8.35156C108.113 7.89258 108.777 7.53125 109.549 7.26758C110.33 6.99414 111.199 6.85742 112.156 6.85742C113.309 6.85742 114.324 7.05273 115.203 7.44336C116.092 7.83398 116.785 8.4248 117.283 9.21582C117.791 9.99707 118.045 10.9785 118.045 12.1602V19.543C118.045 20.0703 118.089 20.6318 118.177 21.2275C118.274 21.8232 118.416 22.3359 118.602 22.7656V23H115.774C115.638 22.6875 115.53 22.2725 115.452 21.7549C115.374 21.2275 115.335 20.7393 115.335 20.29ZM115.804 13.3906L115.833 15.2949H113.094C112.322 15.2949 111.634 15.3584 111.028 15.4854C110.423 15.6025 109.915 15.7832 109.505 16.0273C109.095 16.2715 108.782 16.5791 108.567 16.9502C108.353 17.3115 108.245 17.7363 108.245 18.2246C108.245 18.7227 108.357 19.1768 108.582 19.5869C108.807 19.9971 109.144 20.3242 109.593 20.5684C110.052 20.8027 110.613 20.9199 111.277 20.9199C112.107 20.9199 112.84 20.7441 113.475 20.3926C114.109 20.041 114.612 19.6113 114.983 19.1035C115.364 18.5957 115.569 18.1025 115.599 17.624L116.756 18.9277C116.688 19.3379 116.502 19.792 116.199 20.29C115.896 20.7881 115.491 21.2666 114.983 21.7256C114.485 22.1748 113.89 22.5508 113.196 22.8535C112.513 23.1465 111.741 23.293 110.882 23.293C109.808 23.293 108.865 23.083 108.055 22.6631C107.254 22.2432 106.629 21.6816 106.18 20.9785C105.74 20.2656 105.521 19.4697 105.521 18.5908C105.521 17.7412 105.687 16.9941 106.019 16.3496C106.351 15.6953 106.829 15.1533 107.454 14.7236C108.079 14.2842 108.831 13.9521 109.71 13.7275C110.589 13.5029 111.57 13.3906 112.654 13.3906H115.804ZM122.293 0.5H125.018V19.9238L124.783 23H122.293V0.5ZM135.726 14.9434V15.251C135.726 16.4033 135.589 17.4727 135.315 18.459C135.042 19.4355 134.642 20.2852 134.114 21.0078C133.587 21.7305 132.942 22.292 132.181 22.6924C131.419 23.0928 130.545 23.293 129.559 23.293C128.553 23.293 127.669 23.1221 126.907 22.7803C126.155 22.4287 125.521 21.9258 125.003 21.2715C124.485 20.6172 124.07 19.8262 123.758 18.8984C123.455 17.9707 123.245 16.9258 123.128 15.7637V14.416C123.245 13.2441 123.455 12.1943 123.758 11.2666C124.07 10.3389 124.485 9.54785 125.003 8.89355C125.521 8.22949 126.155 7.72656 126.907 7.38477C127.659 7.0332 128.533 6.85742 129.529 6.85742C130.525 6.85742 131.409 7.05273 132.181 7.44336C132.952 7.82422 133.597 8.37109 134.114 9.08398C134.642 9.79688 135.042 10.6514 135.315 11.6475C135.589 12.6338 135.726 13.7324 135.726 14.9434ZM133.001 15.251V14.9434C133.001 14.1523 132.928 13.4102 132.781 12.7168C132.635 12.0137 132.4 11.3984 132.078 10.8711C131.756 10.334 131.331 9.91406 130.804 9.61133C130.276 9.29883 129.627 9.14258 128.855 9.14258C128.172 9.14258 127.576 9.25977 127.068 9.49414C126.57 9.72852 126.146 10.0459 125.794 10.4463C125.442 10.8369 125.154 11.2861 124.93 11.7939C124.715 12.292 124.554 12.8096 124.446 13.3467V16.877C124.603 17.5605 124.856 18.2197 125.208 18.8545C125.569 19.4795 126.048 19.9922 126.644 20.3926C127.249 20.793 127.996 20.9932 128.885 20.9932C129.617 20.9932 130.242 20.8467 130.76 20.5537C131.287 20.251 131.712 19.8359 132.034 19.3086C132.366 18.7812 132.61 18.1709 132.767 17.4775C132.923 16.7842 133.001 16.042 133.001 15.251ZM138.436 15.251V14.9141C138.436 13.7715 138.602 12.7119 138.934 11.7354C139.266 10.749 139.744 9.89453 140.369 9.17188C140.994 8.43945 141.751 7.87305 142.64 7.47266C143.528 7.0625 144.524 6.85742 145.628 6.85742C146.741 6.85742 147.742 7.0625 148.631 7.47266C149.529 7.87305 150.291 8.43945 150.916 9.17188C151.551 9.89453 152.034 10.749 152.366 11.7354C152.698 12.7119 152.864 13.7715 152.864 14.9141V15.251C152.864 16.3936 152.698 17.4531 152.366 18.4297C152.034 19.4062 151.551 20.2607 150.916 20.9932C150.291 21.7158 149.534 22.2822 148.646 22.6924C147.767 23.0928 146.771 23.293 145.657 23.293C144.544 23.293 143.543 23.0928 142.654 22.6924C141.766 22.2822 141.004 21.7158 140.369 20.9932C139.744 20.2607 139.266 19.4062 138.934 18.4297C138.602 17.4531 138.436 16.3936 138.436 15.251ZM141.146 14.9141V15.251C141.146 16.042 141.238 16.7891 141.424 17.4922C141.609 18.1855 141.888 18.8008 142.259 19.3379C142.64 19.875 143.113 20.2998 143.68 20.6123C144.246 20.915 144.905 21.0664 145.657 21.0664C146.399 21.0664 147.049 20.915 147.605 20.6123C148.172 20.2998 148.641 19.875 149.012 19.3379C149.383 18.8008 149.661 18.1855 149.847 17.4922C150.042 16.7891 150.14 16.042 150.14 15.251V14.9141C150.14 14.1328 150.042 13.3955 149.847 12.7021C149.661 11.999 149.378 11.3789 148.997 10.8418C148.626 10.2949 148.157 9.86523 147.591 9.55273C147.034 9.24023 146.38 9.08398 145.628 9.08398C144.886 9.08398 144.231 9.24023 143.665 9.55273C143.108 9.86523 142.64 10.2949 142.259 10.8418C141.888 11.3789 141.609 11.999 141.424 12.7021C141.238 13.3955 141.146 14.1328 141.146 14.9141ZM158.973 9.64062V23H156.263V7.15039H158.899L158.973 9.64062ZM163.924 7.0625L163.909 9.58203C163.685 9.5332 163.47 9.50391 163.265 9.49414C163.069 9.47461 162.845 9.46484 162.591 9.46484C161.966 9.46484 161.414 9.5625 160.936 9.75781C160.457 9.95312 160.052 10.2266 159.72 10.5781C159.388 10.9297 159.124 11.3496 158.929 11.8379C158.743 12.3164 158.621 12.8438 158.562 13.4199L157.801 13.8594C157.801 12.9023 157.894 12.0039 158.079 11.1641C158.274 10.3242 158.572 9.58203 158.973 8.9375C159.373 8.2832 159.881 7.77539 160.496 7.41406C161.121 7.04297 161.863 6.85742 162.723 6.85742C162.918 6.85742 163.143 6.88184 163.396 6.93066C163.65 6.96973 163.826 7.01367 163.924 7.0625ZM175.188 20.29V12.1309C175.188 11.5059 175.062 10.9639 174.808 10.5049C174.563 10.0361 174.192 9.6748 173.694 9.4209C173.196 9.16699 172.581 9.04004 171.849 9.04004C171.165 9.04004 170.564 9.15723 170.047 9.3916C169.539 9.62598 169.139 9.93359 168.846 10.3145C168.562 10.6953 168.421 11.1055 168.421 11.5449H165.711C165.711 10.9785 165.857 10.417 166.15 9.86035C166.443 9.30371 166.863 8.80078 167.41 8.35156C167.967 7.89258 168.631 7.53125 169.402 7.26758C170.184 6.99414 171.053 6.85742 172.01 6.85742C173.162 6.85742 174.178 7.05273 175.057 7.44336C175.945 7.83398 176.639 8.4248 177.137 9.21582C177.645 9.99707 177.898 10.9785 177.898 12.1602V19.543C177.898 20.0703 177.942 20.6318 178.03 21.2275C178.128 21.8232 178.27 22.3359 178.455 22.7656V23H175.628C175.491 22.6875 175.384 22.2725 175.306 21.7549C175.228 21.2275 175.188 20.7393 175.188 20.29ZM175.657 13.3906L175.687 15.2949H172.947C172.176 15.2949 171.487 15.3584 170.882 15.4854C170.276 15.6025 169.769 15.7832 169.358 16.0273C168.948 16.2715 168.636 16.5791 168.421 16.9502C168.206 17.3115 168.099 17.7363 168.099 18.2246C168.099 18.7227 168.211 19.1768 168.436 19.5869C168.66 19.9971 168.997 20.3242 169.446 20.5684C169.905 20.8027 170.467 20.9199 171.131 20.9199C171.961 20.9199 172.693 20.7441 173.328 20.3926C173.963 20.041 174.466 19.6113 174.837 19.1035C175.218 18.5957 175.423 18.1025 175.452 17.624L176.609 18.9277C176.541 19.3379 176.355 19.792 176.053 20.29C175.75 20.7881 175.345 21.2666 174.837 21.7256C174.339 22.1748 173.743 22.5508 173.05 22.8535C172.366 23.1465 171.595 23.293 170.735 23.293C169.661 23.293 168.719 23.083 167.908 22.6631C167.107 22.2432 166.482 21.6816 166.033 20.9785C165.594 20.2656 165.374 19.4697 165.374 18.5908C165.374 17.7412 165.54 16.9941 165.872 16.3496C166.204 15.6953 166.683 15.1533 167.308 14.7236C167.933 14.2842 168.685 13.9521 169.563 13.7275C170.442 13.5029 171.424 13.3906 172.508 13.3906H175.657ZM182.205 21.5645C182.205 21.1055 182.347 20.7197 182.63 20.4072C182.923 20.085 183.343 19.9238 183.89 19.9238C184.437 19.9238 184.852 20.085 185.135 20.4072C185.428 20.7197 185.574 21.1055 185.574 21.5645C185.574 22.0137 185.428 22.3945 185.135 22.707C184.852 23.0195 184.437 23.1758 183.89 23.1758C183.343 23.1758 182.923 23.0195 182.63 22.707C182.347 22.3945 182.205 22.0137 182.205 21.5645ZM192.781 10.5342V23H190.071V7.15039H192.635L192.781 10.5342ZM192.137 14.4746L191.009 14.4307C191.019 13.3467 191.18 12.3457 191.492 11.4277C191.805 10.5 192.244 9.69434 192.811 9.01074C193.377 8.32715 194.051 7.7998 194.832 7.42871C195.623 7.04785 196.497 6.85742 197.454 6.85742C198.235 6.85742 198.938 6.96484 199.563 7.17969C200.188 7.38477 200.721 7.7168 201.16 8.17578C201.609 8.63477 201.951 9.23047 202.186 9.96289C202.42 10.6855 202.537 11.5693 202.537 12.6143V23H199.812V12.585C199.812 11.7549 199.69 11.0908 199.446 10.5928C199.202 10.085 198.846 9.71875 198.377 9.49414C197.908 9.25977 197.332 9.14258 196.648 9.14258C195.975 9.14258 195.359 9.28418 194.803 9.56738C194.256 9.85059 193.782 10.2412 193.382 10.7393C192.991 11.2373 192.684 11.8086 192.459 12.4531C192.244 13.0879 192.137 13.7617 192.137 14.4746ZM213.23 23.293C212.127 23.293 211.126 23.1074 210.228 22.7363C209.339 22.3555 208.572 21.8232 207.928 21.1396C207.293 20.4561 206.805 19.6455 206.463 18.708C206.121 17.7705 205.95 16.7451 205.95 15.6318V15.0166C205.95 13.7275 206.141 12.5801 206.521 11.5742C206.902 10.5586 207.42 9.69922 208.074 8.99609C208.729 8.29297 209.471 7.76074 210.301 7.39941C211.131 7.03809 211.99 6.85742 212.879 6.85742C214.012 6.85742 214.988 7.05273 215.809 7.44336C216.639 7.83398 217.317 8.38086 217.845 9.08398C218.372 9.77734 218.763 10.5977 219.017 11.5449C219.271 12.4824 219.397 13.5078 219.397 14.6211V15.8369H207.562V13.625H216.688V13.4199C216.648 12.7168 216.502 12.0332 216.248 11.3691C216.004 10.7051 215.613 10.1582 215.076 9.72852C214.539 9.29883 213.807 9.08398 212.879 9.08398C212.264 9.08398 211.697 9.21582 211.18 9.47949C210.662 9.7334 210.218 10.1143 209.847 10.6221C209.476 11.1299 209.188 11.75 208.982 12.4824C208.777 13.2148 208.675 14.0596 208.675 15.0166V15.6318C208.675 16.3838 208.777 17.0918 208.982 17.7559C209.197 18.4102 209.505 18.9863 209.905 19.4844C210.315 19.9824 210.809 20.373 211.385 20.6562C211.971 20.9395 212.635 21.0811 213.377 21.0811C214.334 21.0811 215.145 20.8857 215.809 20.4951C216.473 20.1045 217.054 19.582 217.552 18.9277L219.192 20.2314C218.851 20.749 218.416 21.2422 217.889 21.7109C217.361 22.1797 216.712 22.5605 215.94 22.8535C215.179 23.1465 214.275 23.293 213.23 23.293ZM229.197 7.15039V9.23047H220.628V7.15039H229.197ZM223.528 3.29785H226.238V19.0742C226.238 19.6113 226.321 20.0166 226.487 20.29C226.653 20.5635 226.868 20.7441 227.132 20.832C227.396 20.9199 227.679 20.9639 227.981 20.9639C228.206 20.9639 228.44 20.9443 228.685 20.9053C228.938 20.8564 229.129 20.8174 229.256 20.7881L229.271 23C229.056 23.0684 228.772 23.1318 228.421 23.1904C228.079 23.2588 227.664 23.293 227.176 23.293C226.512 23.293 225.901 23.1611 225.345 22.8975C224.788 22.6338 224.344 22.1943 224.012 21.5791C223.689 20.9541 223.528 20.1143 223.528 19.0596V3.29785ZM232.42 21.5645C232.42 21.1055 232.562 20.7197 232.845 20.4072C233.138 20.085 233.558 19.9238 234.104 19.9238C234.651 19.9238 235.066 20.085 235.35 20.4072C235.643 20.7197 235.789 21.1055 235.789 21.5645C235.789 22.0137 235.643 22.3945 235.35 22.707C235.066 23.0195 234.651 23.1758 234.104 23.1758C233.558 23.1758 233.138 23.0195 232.845 22.707C232.562 22.3945 232.42 22.0137 232.42 21.5645ZM242.996 10.1973V29.0938H240.271V7.15039H242.762L242.996 10.1973ZM253.675 14.9434V15.251C253.675 16.4033 253.538 17.4727 253.265 18.459C252.991 19.4355 252.591 20.2852 252.063 21.0078C251.546 21.7305 250.906 22.292 250.145 22.6924C249.383 23.0928 248.509 23.293 247.522 23.293C246.517 23.293 245.628 23.127 244.856 22.7949C244.085 22.4629 243.431 21.9795 242.894 21.3447C242.356 20.71 241.927 19.9482 241.604 19.0596C241.292 18.1709 241.077 17.1699 240.96 16.0566V14.416C241.077 13.2441 241.297 12.1943 241.619 11.2666C241.941 10.3389 242.366 9.54785 242.894 8.89355C243.431 8.22949 244.08 7.72656 244.842 7.38477C245.604 7.0332 246.482 6.85742 247.479 6.85742C248.475 6.85742 249.358 7.05273 250.13 7.44336C250.901 7.82422 251.551 8.37109 252.078 9.08398C252.605 9.79688 253.001 10.6514 253.265 11.6475C253.538 12.6338 253.675 13.7324 253.675 14.9434ZM250.95 15.251V14.9434C250.95 14.1523 250.867 13.4102 250.701 12.7168C250.535 12.0137 250.276 11.3984 249.925 10.8711C249.583 10.334 249.144 9.91406 248.606 9.61133C248.069 9.29883 247.43 9.14258 246.688 9.14258C246.004 9.14258 245.408 9.25977 244.9 9.49414C244.402 9.72852 243.978 10.0459 243.626 10.4463C243.274 10.8369 242.986 11.2861 242.762 11.7939C242.547 12.292 242.386 12.8096 242.278 13.3467V17.1406C242.474 17.8242 242.747 18.4688 243.099 19.0742C243.45 19.6699 243.919 20.1533 244.505 20.5244C245.091 20.8857 245.828 21.0664 246.717 21.0664C247.449 21.0664 248.079 20.915 248.606 20.6123C249.144 20.2998 249.583 19.875 249.925 19.3379C250.276 18.8008 250.535 18.1855 250.701 17.4922C250.867 16.7891 250.95 16.042 250.95 15.251ZM260.076 0.5V23H257.352V0.5H260.076Z" fill="white"/>
</g>
<defs>
<filter id="filter0_d_184_300" x="0.0507812" y="0.5" width="264.025" height="37.1357" filterUnits="userSpaceOnUse" color-interpolation-filters="sRGB">
<feFlood flood-opacity="0" result="BackgroundImageFix"/>
<feColorMatrix in="SourceAlpha" type="matrix" values="0 0 0 0 0 0 0 0 0 0 0 0 0 0 0 0 0 0 127 0" result="hardAlpha"/>
<feOffset dy="4"/>
<feGaussianBlur stdDeviation="2"/>
<feComposite in2="hardAlpha" operator="out"/>
<feColorMatrix type="matrix" values="0 0 0 0 0 0 0 0 0 0 0 0 0 0 0 0 0 0 0.25 0"/>
<feBlend mode="normal" in2="BackgroundImageFix" result="effect1_dropShadow_184_300"/>
<feBlend mode="normal" in="SourceGraphic" in2="effect1_dropShadow_184_300" result="shape"/>
</filter>
</defs>
</svg>
