<svg width="187" height="27" viewBox="0 0 187 27" fill="none" xmlns="http://www.w3.org/2000/svg">
<g filter="url(#filter0_d_26_241)">
<path d="M16.6099 8.84766V10.8867H4.91455V8.84766H16.6099ZM11.8521 3.86719V16.2891H9.68408V3.86719H11.8521ZM30.5669 12.2578V14.0391H18.2388V12.7617L25.8794 0.9375H27.6489L25.7505 4.35938L20.6997 12.2578H30.5669ZM28.188 0.9375V18H26.02V0.9375H28.188ZM43.2935 13.3828C43.2935 14.4219 43.0513 15.3047 42.5669 16.0312C42.0903 16.75 41.4419 17.2969 40.6216 17.6719C39.8091 18.0469 38.8911 18.2344 37.8677 18.2344C36.8442 18.2344 35.9224 18.0469 35.1021 17.6719C34.2817 17.2969 33.6333 16.75 33.1567 16.0312C32.6802 15.3047 32.4419 14.4219 32.4419 13.3828C32.4419 12.7031 32.5708 12.082 32.8286 11.5195C33.0942 10.9492 33.4653 10.4531 33.9419 10.0312C34.4263 9.60938 34.9966 9.28516 35.6528 9.05859C36.3169 8.82422 37.0474 8.70703 37.8442 8.70703C38.8911 8.70703 39.8247 8.91016 40.645 9.31641C41.4653 9.71484 42.1099 10.2656 42.5786 10.9688C43.0552 11.6719 43.2935 12.4766 43.2935 13.3828ZM41.1138 13.3359C41.1138 12.7031 40.9771 12.1445 40.7036 11.6602C40.4302 11.168 40.0474 10.7852 39.5552 10.5117C39.063 10.2383 38.4927 10.1016 37.8442 10.1016C37.1802 10.1016 36.606 10.2383 36.1216 10.5117C35.645 10.7852 35.2739 11.168 35.0083 11.6602C34.7427 12.1445 34.6099 12.7031 34.6099 13.3359C34.6099 13.9922 34.7388 14.5547 34.9966 15.0234C35.2622 15.4844 35.6372 15.8398 36.1216 16.0898C36.6138 16.332 37.1958 16.4531 37.8677 16.4531C38.5396 16.4531 39.1177 16.332 39.6021 16.0898C40.0864 15.8398 40.4575 15.4844 40.7153 15.0234C40.981 14.5547 41.1138 13.9922 41.1138 13.3359ZM42.895 5.37891C42.895 6.20703 42.6763 6.95312 42.2388 7.61719C41.8013 8.28125 41.2036 8.80469 40.4458 9.1875C39.688 9.57031 38.8286 9.76172 37.8677 9.76172C36.8911 9.76172 36.02 9.57031 35.2544 9.1875C34.4966 8.80469 33.9028 8.28125 33.4731 7.61719C33.0435 6.95312 32.8286 6.20703 32.8286 5.37891C32.8286 4.38672 33.0435 3.54297 33.4731 2.84766C33.9106 2.15234 34.5083 1.62109 35.2661 1.25391C36.0239 0.886719 36.8872 0.703125 37.856 0.703125C38.8325 0.703125 39.6997 0.886719 40.4575 1.25391C41.2153 1.62109 41.8091 2.15234 42.2388 2.84766C42.6763 3.54297 42.895 4.38672 42.895 5.37891ZM40.7271 5.41406C40.7271 4.84375 40.606 4.33984 40.3638 3.90234C40.1216 3.46484 39.7856 3.12109 39.356 2.87109C38.9263 2.61328 38.4263 2.48438 37.856 2.48438C37.2856 2.48438 36.7856 2.60547 36.356 2.84766C35.9341 3.08203 35.6021 3.41797 35.3599 3.85547C35.1255 4.29297 35.0083 4.8125 35.0083 5.41406C35.0083 6 35.1255 6.51172 35.3599 6.94922C35.6021 7.38672 35.938 7.72656 36.3677 7.96875C36.7974 8.21094 37.2974 8.33203 37.8677 8.33203C38.438 8.33203 38.9341 8.21094 39.356 7.96875C39.7856 7.72656 40.1216 7.38672 40.3638 6.94922C40.606 6.51172 40.7271 6 40.7271 5.41406ZM59.1138 0.84375V18H56.9458V3.55078L52.5747 5.14453V3.1875L58.7739 0.84375H59.1138ZM76.6685 16.2188V18H65.5005V16.4414L71.0903 10.2188C71.7778 9.45312 72.3091 8.80469 72.6841 8.27344C73.0669 7.73438 73.3325 7.25391 73.481 6.83203C73.6372 6.40234 73.7153 5.96484 73.7153 5.51953C73.7153 4.95703 73.5981 4.44922 73.3638 3.99609C73.1372 3.53516 72.8013 3.16797 72.356 2.89453C71.9106 2.62109 71.3716 2.48438 70.7388 2.48438C69.981 2.48438 69.3481 2.63281 68.8403 2.92969C68.3403 3.21875 67.9653 3.625 67.7153 4.14844C67.4653 4.67188 67.3403 5.27344 67.3403 5.95312H65.1724C65.1724 4.99219 65.3833 4.11328 65.8052 3.31641C66.2271 2.51953 66.8521 1.88672 67.6802 1.41797C68.5083 0.941406 69.5278 0.703125 70.7388 0.703125C71.8169 0.703125 72.7388 0.894531 73.5044 1.27734C74.27 1.65234 74.856 2.18359 75.2622 2.87109C75.6763 3.55078 75.8833 4.34766 75.8833 5.26172C75.8833 5.76172 75.7974 6.26953 75.6255 6.78516C75.4614 7.29297 75.231 7.80078 74.9341 8.30859C74.645 8.81641 74.3052 9.31641 73.9146 9.80859C73.5317 10.3008 73.1216 10.7852 72.6841 11.2617L68.1138 16.2188H76.6685ZM82.1528 8.40234H83.6997C84.4575 8.40234 85.0825 8.27734 85.5747 8.02734C86.0747 7.76953 86.4458 7.42188 86.688 6.98438C86.938 6.53906 87.063 6.03906 87.063 5.48438C87.063 4.82812 86.9536 4.27734 86.7349 3.83203C86.5161 3.38672 86.188 3.05078 85.7505 2.82422C85.313 2.59766 84.7583 2.48438 84.0864 2.48438C83.4771 2.48438 82.938 2.60547 82.4692 2.84766C82.0083 3.08203 81.645 3.41797 81.3794 3.85547C81.1216 4.29297 80.9927 4.80859 80.9927 5.40234H78.8247C78.8247 4.53516 79.0435 3.74609 79.481 3.03516C79.9185 2.32422 80.5317 1.75781 81.3208 1.33594C82.1177 0.914062 83.0396 0.703125 84.0864 0.703125C85.1177 0.703125 86.02 0.886719 86.7935 1.25391C87.5669 1.61328 88.1685 2.15234 88.5981 2.87109C89.0278 3.58203 89.2427 4.46875 89.2427 5.53125C89.2427 5.96094 89.1411 6.42188 88.938 6.91406C88.7427 7.39844 88.4341 7.85156 88.0122 8.27344C87.5981 8.69531 87.0591 9.04297 86.395 9.31641C85.731 9.58203 84.9341 9.71484 84.0044 9.71484H82.1528V8.40234ZM82.1528 10.1836V8.88281H84.0044C85.0903 8.88281 85.9888 9.01172 86.6997 9.26953C87.4106 9.52734 87.9692 9.87109 88.3755 10.3008C88.7896 10.7305 89.0786 11.2031 89.2427 11.7188C89.4146 12.2266 89.5005 12.7344 89.5005 13.2422C89.5005 14.0391 89.3638 14.7461 89.0903 15.3633C88.8247 15.9805 88.4458 16.5039 87.9536 16.9336C87.4692 17.3633 86.8989 17.6875 86.2427 17.9062C85.5864 18.125 84.8716 18.2344 84.0981 18.2344C83.356 18.2344 82.6567 18.1289 82.0005 17.918C81.3521 17.707 80.7778 17.4023 80.2778 17.0039C79.7778 16.5977 79.3872 16.1016 79.106 15.5156C78.8247 14.9219 78.6841 14.2461 78.6841 13.4883H80.8521C80.8521 14.082 80.981 14.6016 81.2388 15.0469C81.5044 15.4922 81.8794 15.8398 82.3638 16.0898C82.856 16.332 83.4341 16.4531 84.0981 16.4531C84.7622 16.4531 85.3325 16.3398 85.8091 16.1133C86.2935 15.8789 86.6646 15.5273 86.9224 15.0586C87.188 14.5898 87.3208 14 87.3208 13.2891C87.3208 12.5781 87.1724 11.9961 86.8755 11.543C86.5786 11.082 86.1567 10.7422 85.6099 10.5234C85.0708 10.2969 84.4341 10.1836 83.6997 10.1836H82.1528ZM109.973 12.2578V14.0391H97.645V12.7617L105.286 0.9375H107.055L105.157 4.35938L100.106 12.2578H109.973ZM107.594 0.9375V18H105.426V0.9375H107.594ZM114.684 9.87891L112.95 9.43359L113.805 0.9375H122.559V2.94141H115.645L115.129 7.58203C115.442 7.40234 115.836 7.23438 116.313 7.07812C116.797 6.92188 117.352 6.84375 117.977 6.84375C118.766 6.84375 119.473 6.98047 120.098 7.25391C120.723 7.51953 121.254 7.90234 121.692 8.40234C122.137 8.90234 122.477 9.50391 122.711 10.207C122.946 10.9102 123.063 11.6953 123.063 12.5625C123.063 13.3828 122.95 14.1367 122.723 14.8242C122.504 15.5117 122.172 16.1133 121.727 16.6289C121.282 17.1367 120.719 17.5312 120.04 17.8125C119.368 18.0938 118.575 18.2344 117.661 18.2344C116.973 18.2344 116.321 18.1406 115.704 17.9531C115.094 17.7578 114.547 17.4648 114.063 17.0742C113.586 16.6758 113.196 16.1836 112.891 15.5977C112.594 15.0039 112.407 14.3086 112.329 13.5117H114.391C114.485 14.1523 114.672 14.6914 114.954 15.1289C115.235 15.5664 115.602 15.8984 116.055 16.125C116.516 16.3438 117.051 16.4531 117.661 16.4531C118.176 16.4531 118.633 16.3633 119.032 16.1836C119.43 16.0039 119.766 15.7461 120.04 15.4102C120.313 15.0742 120.52 14.668 120.661 14.1914C120.809 13.7148 120.883 13.1797 120.883 12.5859C120.883 12.0469 120.809 11.5469 120.661 11.0859C120.512 10.625 120.29 10.2227 119.993 9.87891C119.704 9.53516 119.348 9.26953 118.926 9.08203C118.504 8.88672 118.02 8.78906 117.473 8.78906C116.747 8.78906 116.196 8.88672 115.821 9.08203C115.454 9.27734 115.075 9.54297 114.684 9.87891ZM133.762 0.914062H133.95V2.75391H133.762C132.614 2.75391 131.653 2.94141 130.879 3.31641C130.106 3.68359 129.493 4.17969 129.04 4.80469C128.586 5.42188 128.258 6.11719 128.055 6.89062C127.86 7.66406 127.762 8.44922 127.762 9.24609V11.7539C127.762 12.5117 127.852 13.1836 128.032 13.7695C128.211 14.3477 128.458 14.8359 128.77 15.2344C129.083 15.6328 129.434 15.9336 129.825 16.1367C130.223 16.3398 130.637 16.4414 131.067 16.4414C131.567 16.4414 132.012 16.3477 132.403 16.1602C132.793 15.9648 133.122 15.6953 133.387 15.3516C133.661 15 133.868 14.5859 134.008 14.1094C134.149 13.6328 134.219 13.1094 134.219 12.5391C134.219 12.0312 134.157 11.543 134.032 11.0742C133.907 10.5977 133.715 10.1758 133.458 9.80859C133.2 9.43359 132.875 9.14062 132.485 8.92969C132.102 8.71094 131.645 8.60156 131.114 8.60156C130.512 8.60156 129.95 8.75 129.426 9.04688C128.911 9.33594 128.485 9.71875 128.149 10.1953C127.821 10.6641 127.633 11.1758 127.586 11.7305L126.438 11.7188C126.547 10.8438 126.75 10.0977 127.047 9.48047C127.352 8.85547 127.727 8.34766 128.172 7.95703C128.625 7.55859 129.129 7.26953 129.684 7.08984C130.247 6.90234 130.84 6.80859 131.465 6.80859C132.317 6.80859 133.051 6.96875 133.668 7.28906C134.286 7.60938 134.793 8.03906 135.192 8.57812C135.59 9.10938 135.883 9.71094 136.071 10.3828C136.266 11.0469 136.364 11.7305 136.364 12.4336C136.364 13.2383 136.25 13.9922 136.024 14.6953C135.797 15.3984 135.458 16.0156 135.004 16.5469C134.559 17.0781 134.008 17.4922 133.352 17.7891C132.696 18.0859 131.934 18.2344 131.067 18.2344C130.145 18.2344 129.34 18.0469 128.653 17.6719C127.965 17.2891 127.395 16.7812 126.942 16.1484C126.489 15.5156 126.149 14.8125 125.922 14.0391C125.696 13.2656 125.583 12.4805 125.583 11.6836V10.6641C125.583 9.46094 125.704 8.28125 125.946 7.125C126.188 5.96875 126.606 4.92188 127.2 3.98438C127.801 3.04688 128.633 2.30078 129.696 1.74609C130.758 1.19141 132.114 0.914062 133.762 0.914062ZM155.922 0.9375V2.15625L148.856 18H146.571L153.625 2.71875H144.391V0.9375H155.922ZM169.153 13.3828C169.153 14.4219 168.911 15.3047 168.426 16.0312C167.95 16.75 167.301 17.2969 166.481 17.6719C165.668 18.0469 164.75 18.2344 163.727 18.2344C162.704 18.2344 161.782 18.0469 160.961 17.6719C160.141 17.2969 159.493 16.75 159.016 16.0312C158.54 15.3047 158.301 14.4219 158.301 13.3828C158.301 12.7031 158.43 12.082 158.688 11.5195C158.954 10.9492 159.325 10.4531 159.801 10.0312C160.286 9.60938 160.856 9.28516 161.512 9.05859C162.176 8.82422 162.907 8.70703 163.704 8.70703C164.75 8.70703 165.684 8.91016 166.504 9.31641C167.325 9.71484 167.969 10.2656 168.438 10.9688C168.915 11.6719 169.153 12.4766 169.153 13.3828ZM166.973 13.3359C166.973 12.7031 166.836 12.1445 166.563 11.6602C166.29 11.168 165.907 10.7852 165.415 10.5117C164.922 10.2383 164.352 10.1016 163.704 10.1016C163.04 10.1016 162.465 10.2383 161.981 10.5117C161.504 10.7852 161.133 11.168 160.868 11.6602C160.602 12.1445 160.469 12.7031 160.469 13.3359C160.469 13.9922 160.598 14.5547 160.856 15.0234C161.122 15.4844 161.497 15.8398 161.981 16.0898C162.473 16.332 163.055 16.4531 163.727 16.4531C164.399 16.4531 164.977 16.332 165.461 16.0898C165.946 15.8398 166.317 15.4844 166.575 15.0234C166.84 14.5547 166.973 13.9922 166.973 13.3359ZM168.754 5.37891C168.754 6.20703 168.536 6.95312 168.098 7.61719C167.661 8.28125 167.063 8.80469 166.305 9.1875C165.547 9.57031 164.688 9.76172 163.727 9.76172C162.75 9.76172 161.879 9.57031 161.114 9.1875C160.356 8.80469 159.762 8.28125 159.333 7.61719C158.903 6.95312 158.688 6.20703 158.688 5.37891C158.688 4.38672 158.903 3.54297 159.333 2.84766C159.77 2.15234 160.368 1.62109 161.125 1.25391C161.883 0.886719 162.747 0.703125 163.715 0.703125C164.692 0.703125 165.559 0.886719 166.317 1.25391C167.075 1.62109 167.668 2.15234 168.098 2.84766C168.536 3.54297 168.754 4.38672 168.754 5.37891ZM166.586 5.41406C166.586 4.84375 166.465 4.33984 166.223 3.90234C165.981 3.46484 165.645 3.12109 165.215 2.87109C164.786 2.61328 164.286 2.48438 163.715 2.48438C163.145 2.48438 162.645 2.60547 162.215 2.84766C161.793 3.08203 161.461 3.41797 161.219 3.85547C160.985 4.29297 160.868 4.8125 160.868 5.41406C160.868 6 160.985 6.51172 161.219 6.94922C161.461 7.38672 161.797 7.72656 162.227 7.96875C162.657 8.21094 163.157 8.33203 163.727 8.33203C164.297 8.33203 164.793 8.21094 165.215 7.96875C165.645 7.72656 165.981 7.38672 166.223 6.94922C166.465 6.51172 166.586 6 166.586 5.41406ZM174.051 16.1836H174.274C175.524 16.1836 176.54 16.0078 177.321 15.6562C178.102 15.3047 178.704 14.832 179.125 14.2383C179.547 13.6445 179.836 12.9766 179.993 12.2344C180.149 11.4844 180.227 10.7148 180.227 9.92578V7.3125C180.227 6.53906 180.137 5.85156 179.958 5.25C179.786 4.64844 179.543 4.14453 179.231 3.73828C178.926 3.33203 178.579 3.02344 178.188 2.8125C177.797 2.60156 177.383 2.49609 176.946 2.49609C176.446 2.49609 175.997 2.59766 175.598 2.80078C175.208 2.99609 174.875 3.27344 174.602 3.63281C174.336 3.99219 174.133 4.41406 173.993 4.89844C173.852 5.38281 173.782 5.91016 173.782 6.48047C173.782 6.98828 173.844 7.48047 173.969 7.95703C174.094 8.43359 174.286 8.86328 174.543 9.24609C174.801 9.62891 175.122 9.93359 175.504 10.1602C175.895 10.3789 176.352 10.4883 176.875 10.4883C177.36 10.4883 177.813 10.3945 178.235 10.207C178.665 10.0117 179.043 9.75 179.372 9.42188C179.708 9.08594 179.973 8.70703 180.168 8.28516C180.372 7.86328 180.489 7.42188 180.52 6.96094H181.551C181.551 7.60938 181.422 8.25 181.165 8.88281C180.915 9.50781 180.563 10.0781 180.11 10.5938C179.657 11.1094 179.125 11.5234 178.516 11.8359C177.907 12.1406 177.243 12.293 176.524 12.293C175.68 12.293 174.95 12.1289 174.333 11.8008C173.715 11.4727 173.208 11.0352 172.809 10.4883C172.418 9.94141 172.125 9.33203 171.93 8.66016C171.743 7.98047 171.649 7.29297 171.649 6.59766C171.649 5.78516 171.762 5.02344 171.989 4.3125C172.215 3.60156 172.551 2.97656 172.997 2.4375C173.442 1.89062 173.993 1.46484 174.649 1.16016C175.313 0.855469 176.079 0.703125 176.946 0.703125C177.922 0.703125 178.754 0.898438 179.442 1.28906C180.129 1.67969 180.688 2.20312 181.118 2.85938C181.555 3.51562 181.875 4.25391 182.079 5.07422C182.282 5.89453 182.383 6.73828 182.383 7.60547V8.39062C182.383 9.27344 182.325 10.1719 182.208 11.0859C182.098 11.9922 181.883 12.8594 181.563 13.6875C181.25 14.5156 180.793 15.2578 180.192 15.9141C179.59 16.5625 178.805 17.0781 177.836 17.4609C176.875 17.8359 175.688 18.0234 174.274 18.0234H174.051V16.1836Z" fill="white"/>
</g>
<defs>
<filter id="filter0_d_26_241" x="0.914551" y="0.703125" width="185.469" height="25.5312" filterUnits="userSpaceOnUse" color-interpolation-filters="sRGB">
<feFlood flood-opacity="0" result="BackgroundImageFix"/>
<feColorMatrix in="SourceAlpha" type="matrix" values="0 0 0 0 0 0 0 0 0 0 0 0 0 0 0 0 0 0 127 0" result="hardAlpha"/>
<feOffset dy="4"/>
<feGaussianBlur stdDeviation="2"/>
<feComposite in2="hardAlpha" operator="out"/>
<feColorMatrix type="matrix" values="0 0 0 0 0 0 0 0 0 0 0 0 0 0 0 0 0 0 0.25 0"/>
<feBlend mode="normal" in2="BackgroundImageFix" result="effect1_dropShadow_26_241"/>
<feBlend mode="normal" in="SourceGraphic" in2="effect1_dropShadow_26_241" result="shape"/>
</filter>
</defs>
</svg>
