<svg width="48" height="48" viewBox="0 0 48 48" fill="none" xmlns="http://www.w3.org/2000/svg">
<mask id="mask0_165_191" style="mask-type:alpha" maskUnits="userSpaceOnUse" x="0" y="0" width="48" height="48">
<rect width="48" height="48" fill="#D9D9D9"/>
</mask>
<g mask="url(#mask0_165_191)">
<path d="M24.0002 1.69995L42.6002 12.85C43.2669 13.2166 43.7169 13.6916 43.9502 14.275C44.1835 14.8583 44.3002 15.45 44.3002 16.05V39C44.3002 39.9 43.9669 40.6916 43.3002 41.375C42.6335 42.0583 41.8335 42.4 40.9002 42.4H7.1002C6.2002 42.4 5.40853 42.0583 4.7252 41.375C4.04186 40.6916 3.7002 39.9 3.7002 39V16.05C3.7002 15.45 3.8252 14.8583 4.0752 14.275C4.3252 13.6916 4.76686 13.2166 5.4002 12.85L24.0002 1.69995ZM24.0002 25.2999L40.6002 15.55L24.0002 5.54995L7.4002 15.55L24.0002 25.2999ZM24.0002 28.75L7.1002 18.85V39H40.9002V18.85L24.0002 28.75Z" fill="white"/>
</g>
</svg>
