<svg width="64" height="64" viewBox="0 0 64 64" fill="none" xmlns="http://www.w3.org/2000/svg">
<mask id="mask0_165_203" style="mask-type:alpha" maskUnits="userSpaceOnUse" x="0" y="0" width="64" height="64">
<rect width="64" height="64" fill="#D9D9D9"/>
</mask>
<g mask="url(#mask0_165_203)">
<path d="M19 54.3333V33H11L37.6667 9L51 20.8V13H56.3333V25.7333L64.3333 33H56.3333V54.3333H41V38.3333H34.3333V54.3333H19ZM23 50.3333H30.3333V34.3333H45V50.3333H52.3333V27.6L37.6667 14.2667L23 27.6V50.3333ZM32 27H43.3333C43.3333 25.5333 42.7667 24.3222 41.6333 23.3667C40.5 22.4111 39.1778 21.9333 37.6667 21.9333C36.1556 21.9333 34.8333 22.4111 33.7 23.3667C32.5667 24.3222 32 25.5333 32 27Z" fill="white"/>
</g>
</svg>
