<svg width="48" height="48" viewBox="0 0 48 48" fill="none" xmlns="http://www.w3.org/2000/svg">
<mask id="mask0_165_188" style="mask-type:alpha" maskUnits="userSpaceOnUse" x="0" y="0" width="48" height="48">
<rect width="48" height="48" fill="#D9D9D9"/>
</mask>
<g mask="url(#mask0_165_188)">
<path d="M13.1502 46.2999C12.2169 46.2999 11.4085 45.9583 10.7252 45.275C10.0419 44.5916 9.7002 43.7833 9.7002 42.8499V5.14995C9.7002 4.21662 10.0419 3.40828 10.7252 2.72495C11.4085 2.04162 12.2169 1.69995 13.1502 1.69995H34.8502C35.7835 1.69995 36.5919 2.04162 37.2752 2.72495C37.9585 3.40828 38.3002 4.21662 38.3002 5.14995V42.8499C38.3002 43.7833 37.9585 44.5916 37.2752 45.275C36.5919 45.9583 35.7835 46.2999 34.8502 46.2999H13.1502ZM13.1502 41.3499V42.8499H34.8502V41.3499H13.1502ZM13.1502 38.3499H34.8502V9.64995H13.1502V38.3499ZM13.1502 6.64995H34.8502V5.14995H13.1502V6.64995Z" fill="white"/>
</g>
</svg>
