<svg width="25" height="39" viewBox="0 0 25 39" fill="none" xmlns="http://www.w3.org/2000/svg">
<path fill-rule="evenodd" clip-rule="evenodd" d="M11.822 34.1014C9.21882 34.039 6.58615 34.3888 4.03694 34.7491C3.48834 34.8287 3.08679 35.3852 3.17899 35.9792C3.23329 36.5845 3.73271 37.0082 4.24331 36.9395C6.71356 36.5881 9.26493 36.2385 11.7477 36.3054C12.2774 36.3224 12.7362 35.8396 12.7618 35.2297C12.7875 34.6203 12.3518 34.1188 11.822 34.1014Z" fill="#42A146"/>
<path fill-rule="evenodd" clip-rule="evenodd" d="M16.7706 21.1197C11.8559 17.7718 6.57584 15.1433 1.71023 11.6532C1.27226 11.3225 0.659071 11.4753 0.368604 11.9861C0.078232 12.4974 0.191143 13.1833 0.667117 13.503C5.53567 17.0063 10.8186 19.6476 15.7363 23.0087C16.21 23.3182 16.8192 23.1485 17.1071 22.6262C17.3571 22.1152 17.2443 21.4292 16.7706 21.1197Z" fill="#42A146"/>
<path fill-rule="evenodd" clip-rule="evenodd" d="M20.2578 1.7712C20.9444 4.30194 21.6308 6.83274 22.3175 9.3639C22.4487 9.95112 23.0062 10.2727 23.5319 10.0904C24.0574 9.90761 24.3256 9.29797 24.1944 8.71032C23.5068 6.17532 22.8195 3.64069 22.1321 1.10611C21.9629 0.529871 21.4062 0.211259 20.8813 0.396989C20.3944 0.571735 20.0887 1.19538 20.2578 1.7712Z" fill="#42A146"/>
</svg>
