<svg width="42" height="42" viewBox="0 0 42 42" fill="none" xmlns="http://www.w3.org/2000/svg">
<path d="M21.0002 0.699951L39.6002 11.85C40.2669 12.2166 40.7169 12.6916 40.9502 13.275C41.1835 13.8583 41.3002 14.45 41.3002 15.05V38C41.3002 38.9 40.9669 39.6916 40.3002 40.375C39.6335 41.0583 38.8335 41.4 37.9002 41.4H4.1002C3.2002 41.4 2.40853 41.0583 1.7252 40.375C1.04186 39.6916 0.700195 38.9 0.700195 38V15.05C0.700195 14.45 0.825195 13.8583 1.0752 13.275C1.3252 12.6916 1.76686 12.2166 2.4002 11.85L21.0002 0.699951ZM21.0002 24.2999L37.6002 14.55L21.0002 4.54995L4.4002 14.55L21.0002 24.2999ZM21.0002 27.75L4.1002 17.85V38H37.9002V17.85L21.0002 27.75Z" fill="white"/>
</svg>
