<svg width="127" height="152" viewBox="0 0 127 152" fill="none" xmlns="http://www.w3.org/2000/svg">
<g opacity="0.4" filter="url(#filter0_b_182_345)">
<path d="M117.646 116.973C123.831 123.158 126.924 126.25 126.408 130.588C125.892 134.926 122.683 136.888 116.265 140.81C110.786 144.157 104.886 146.81 98.6957 148.688C86.7356 152.316 74.0653 152.938 61.8072 150.5C49.5491 148.062 38.0815 142.638 28.4202 134.709C18.7589 126.78 11.2021 116.591 6.41921 105.044C1.63633 93.4975 -0.22503 80.9493 1.00001 68.5112C2.22505 56.0731 6.49868 44.1291 13.4423 33.7371C20.386 23.3452 29.7854 14.8261 40.8079 8.93445C46.5125 5.88524 52.5608 3.58851 58.8017 2.08213C66.1132 0.317291 69.769 -0.565129 73.2015 2.13741C76.634 4.83996 76.634 9.21345 76.634 17.9604L76.634 31.2173C76.634 35.8053 76.634 38.0993 76.1071 39.5707C75.5262 41.1928 75.4609 41.3017 74.3042 42.5786C73.2549 43.7369 69.6655 45.6555 62.4867 49.4927V49.4927C58.1341 51.8192 54.4224 55.1833 51.6804 59.287C48.9384 63.3906 47.2508 68.1072 46.7671 73.0188C46.2833 77.9305 47.0184 82.8856 48.9071 87.4454C50.7958 92.0051 53.7798 96.0287 57.595 99.1596C61.4101 102.291 65.9385 104.432 70.7791 105.395C75.6197 106.358 80.623 106.112 85.3459 104.68V104.68C93.1354 102.317 97.0301 101.135 98.5911 101.212C100.312 101.297 100.435 101.328 101.993 102.065C103.406 102.732 105.028 104.354 108.272 107.599L117.646 116.973Z" fill="url(#paint0_linear_182_345)"/>
</g>
<defs>
<filter id="filter0_b_182_345" x="-29.366" y="-29.5796" width="185.829" height="211.54" filterUnits="userSpaceOnUse" color-interpolation-filters="sRGB">
<feFlood flood-opacity="0" result="BackgroundImageFix"/>
<feGaussianBlur in="BackgroundImageFix" stdDeviation="15"/>
<feComposite in2="SourceAlpha" operator="in" result="effect1_backgroundBlur_182_345"/>
<feBlend mode="normal" in="SourceGraphic" in2="effect1_backgroundBlur_182_345" result="shape"/>
</filter>
<linearGradient id="paint0_linear_182_345" x1="80" y1="27" x2="80" y2="179" gradientUnits="userSpaceOnUse">
<stop stop-color="#5BFF6B" stop-opacity="0.4"/>
<stop offset="1" stop-color="#5EFF5B" stop-opacity="0.25"/>
</linearGradient>
</defs>
</svg>
