<svg width="220" height="37" viewBox="0 0 220 37" fill="none" xmlns="http://www.w3.org/2000/svg">
<g clip-path="url(#clip0_184_287)">
<path d="M16.0423 23.7385L24.3041 28.725L22.1116 19.3269L29.4109 13.0036L19.7989 12.1881L16.0423 3.32471L12.2857 12.1881L2.67371 13.0036L9.97295 19.3269L7.7805 28.725L16.0423 23.7385Z" fill="#F8A401"/>
</g>
<g clip-path="url(#clip1_184_287)" filter="url(#filter0_d_184_287)">
<path d="M53.4743 23.7385L61.7361 28.725L59.5436 19.3269L66.8429 13.0036L57.2309 12.1881L53.4743 3.32471L49.7177 12.1881L40.1057 13.0036L47.405 19.3269L45.2125 28.725L53.4743 23.7385Z" fill="#F8A401"/>
</g>
<g clip-path="url(#clip2_184_287)">
<path d="M90.9064 23.7385L99.1681 28.725L96.9757 19.3269L104.275 13.0036L94.6629 12.1881L90.9064 3.32471L87.1498 12.1881L77.5378 13.0036L84.837 19.3269L82.6446 28.725L90.9064 23.7385Z" fill="#F8A401"/>
</g>
<g clip-path="url(#clip3_184_287)">
<path d="M128.338 23.7385L136.6 28.725L134.408 19.3269L141.707 13.0036L132.095 12.1881L128.338 3.32471L124.582 12.1881L114.97 13.0036L122.269 19.3269L120.077 28.725L128.338 23.7385Z" fill="#F8A401"/>
</g>
<g clip-path="url(#clip4_184_287)">
<path d="M179.139 13.0036L169.527 12.1747L165.77 3.32471L162.014 12.1881L152.402 13.0036L159.701 19.3269L157.509 28.725L165.77 23.7385L174.032 28.725L171.853 19.3269L179.139 13.0036ZM165.77 21.2386L160.744 24.2733L162.081 18.5515L157.642 14.7014L163.498 14.1934L165.77 8.80582L168.056 14.2067L173.912 14.7147L169.473 18.5649L170.81 24.2866L165.77 21.2386Z" fill="#F8A401"/>
</g>
<defs>
<filter id="filter0_d_184_287" x="33.432" y="0.650879" width="40.0846" height="40.0845" filterUnits="userSpaceOnUse" color-interpolation-filters="sRGB">
<feFlood flood-opacity="0" result="BackgroundImageFix"/>
<feColorMatrix in="SourceAlpha" type="matrix" values="0 0 0 0 0 0 0 0 0 0 0 0 0 0 0 0 0 0 127 0" result="hardAlpha"/>
<feOffset dy="4"/>
<feGaussianBlur stdDeviation="2"/>
<feComposite in2="hardAlpha" operator="out"/>
<feColorMatrix type="matrix" values="0 0 0 0 0 0 0 0 0 0 0 0 0 0 0 0 0 0 0.25 0"/>
<feBlend mode="normal" in2="BackgroundImageFix" result="effect1_dropShadow_184_287"/>
<feBlend mode="normal" in="SourceGraphic" in2="effect1_dropShadow_184_287" result="shape"/>
</filter>
<clipPath id="clip0_184_287">
<rect width="32.0846" height="32.0846" fill="white" transform="translate(0 0.650879)"/>
</clipPath>
<clipPath id="clip1_184_287">
<rect width="32.0846" height="32.0846" fill="white" transform="translate(37.432 0.650879)"/>
</clipPath>
<clipPath id="clip2_184_287">
<rect width="32.0846" height="32.0846" fill="white" transform="translate(74.8641 0.650879)"/>
</clipPath>
<clipPath id="clip3_184_287">
<rect width="32.0846" height="32.0846" fill="white" transform="translate(112.296 0.650879)"/>
</clipPath>
<clipPath id="clip4_184_287">
<rect width="32.0846" height="32.0846" fill="white" transform="translate(149.728 0.650879)"/>
</clipPath>
</defs>
</svg>
