<svg width="26" height="26" viewBox="0 0 26 26" fill="none" xmlns="http://www.w3.org/2000/svg">
<path d="M13 15.3507C10.6925 15.3507 8.8075 13.4766 8.8075 11.1582C8.8075 8.8399 10.6925 6.97656 13 6.97656C15.3075 6.97656 17.1925 8.85073 17.1925 11.1691C17.1925 13.4874 15.3075 15.3507 13 15.3507ZM13 8.60156C11.5917 8.60156 10.4325 9.7499 10.4325 11.1691C10.4325 12.5882 11.5808 13.7366 13 13.7366C14.4192 13.7366 15.5675 12.5882 15.5675 11.1691C15.5675 9.7499 14.4083 8.60156 13 8.60156Z" fill="#292D32"/>
<path d="M13 24.6567C11.3967 24.6567 9.78251 24.0501 8.52584 22.8476C5.33001 19.7709 1.79834 14.8634 3.13084 9.02425C4.33334 3.72675 8.95917 1.35425 13 1.35425C13 1.35425 13 1.35425 13.0108 1.35425C17.0517 1.35425 21.6775 3.72675 22.88 9.03508C24.2017 14.8742 20.67 19.7709 17.4742 22.8476C16.2175 24.0501 14.6033 24.6567 13 24.6567ZM13 2.97925C9.84751 2.97925 5.79584 4.65841 4.72334 9.38175C3.55334 14.4842 6.76001 18.8826 9.66334 21.6667C11.5375 23.4759 14.4733 23.4759 16.3475 21.6667C19.24 18.8826 22.4467 14.4842 21.2983 9.38175C20.215 4.65841 16.1525 2.97925 13 2.97925Z" fill="#292D32"/>
</svg>
