<svg width="26" height="26" viewBox="0 0 26 26" fill="none" xmlns="http://www.w3.org/2000/svg">
<path d="M9.92291 12.5884C9.89041 12.5884 9.86874 12.5884 9.83624 12.5884C9.78208 12.5776 9.70624 12.5776 9.64124 12.5884C6.49957 12.4909 4.12708 10.0209 4.12708 6.97675C4.12708 3.87841 6.65124 1.35425 9.74958 1.35425C12.8479 1.35425 15.3721 3.87841 15.3721 6.97675C15.3612 10.0209 12.9779 12.4909 9.95541 12.5884C9.94457 12.5884 9.93374 12.5884 9.92291 12.5884ZM9.74958 2.97925C7.55041 2.97925 5.75208 4.77758 5.75208 6.97675C5.75208 9.14341 7.44208 10.8876 9.59791 10.9634C9.66291 10.9526 9.80374 10.9526 9.94458 10.9634C12.0679 10.8659 13.7362 9.12175 13.7471 6.97675C13.7471 4.77758 11.9487 2.97925 9.74958 2.97925Z" fill="#292D32"/>
<path d="M17.9179 12.7291C17.8854 12.7291 17.8529 12.7291 17.8204 12.7183C17.3762 12.7616 16.9212 12.4474 16.8779 12.0033C16.8345 11.5591 17.1054 11.1583 17.5495 11.1041C17.6795 11.0933 17.8204 11.0933 17.9395 11.0933C19.5212 11.0066 20.7562 9.70659 20.7562 8.11409C20.7562 6.46742 19.4237 5.13492 17.777 5.13492C17.3329 5.14575 16.9645 4.77742 16.9645 4.33325C16.9645 3.88909 17.3329 3.52075 17.777 3.52075C20.312 3.52075 22.3812 5.58992 22.3812 8.12492C22.3812 10.6166 20.4312 12.6316 17.9504 12.7291C17.9395 12.7291 17.9287 12.7291 17.9179 12.7291Z" fill="#292D32"/>
<path d="M9.93374 24.4291C7.81041 24.4291 5.67624 23.8874 4.06208 22.8041C2.55624 21.8074 1.73291 20.4424 1.73291 18.9583C1.73291 17.4741 2.55624 16.0983 4.06208 15.0908C7.31208 12.9349 12.5771 12.9349 15.8054 15.0908C17.3004 16.0874 18.1346 17.4524 18.1346 18.9366C18.1346 20.4207 17.3112 21.7966 15.8054 22.8041C14.1804 23.8874 12.0571 24.4291 9.93374 24.4291ZM4.96124 16.4558C3.92124 17.1491 3.35791 18.0374 3.35791 18.9691C3.35791 19.8899 3.93208 20.7782 4.96124 21.4607C7.65874 23.2699 12.2087 23.2699 14.9062 21.4607C15.9462 20.7674 16.5096 19.8791 16.5096 18.9474C16.5096 18.0266 15.9354 17.1383 14.9062 16.4558C12.2087 14.6574 7.65874 14.6574 4.96124 16.4558Z" fill="#292D32"/>
<path d="M19.8679 22.4792C19.4887 22.4792 19.1529 22.2192 19.0771 21.8292C18.9904 21.385 19.2721 20.9625 19.7054 20.865C20.3879 20.7242 21.0162 20.4534 21.5037 20.0742C22.1212 19.6084 22.4571 19.0234 22.4571 18.4059C22.4571 17.7884 22.1212 17.2034 21.5146 16.7484C21.0379 16.38 20.4421 16.12 19.7379 15.9575C19.3046 15.86 19.0229 15.4267 19.1204 14.9825C19.2179 14.5492 19.6512 14.2675 20.0954 14.365C21.0271 14.5709 21.8396 14.9392 22.5004 15.4484C23.5079 16.2067 24.0821 17.2792 24.0821 18.4059C24.0821 19.5325 23.4971 20.605 22.4896 21.3742C21.8179 21.8942 20.9729 22.2734 20.0412 22.4575C19.9762 22.4792 19.9221 22.4792 19.8679 22.4792Z" fill="#292D32"/>
</svg>
