<svg width="62" height="55" viewBox="0 0 62 55" fill="none" xmlns="http://www.w3.org/2000/svg">
<path fill-rule="evenodd" clip-rule="evenodd" d="M24.154 13.555C25.132 12.4342 26.2355 11.429 27.3957 10.5802C29.665 8.91969 33.1485 7.25149 36.4771 6.81506C38.7587 6.51592 40.9669 6.79915 42.6907 8.00599C45.9739 10.3047 47.0275 14.8317 46.6055 19.7181C46.2977 23.282 45.2107 27.0314 43.6906 30.1854C45.6049 28.6174 48.1253 27.0733 50.6558 26.4633C53.4921 25.7769 56.3364 26.2509 58.424 29.0403C62.7867 34.8711 61.4613 41.1807 57.7666 46.0652C54.1368 50.8628 48.2011 54.2545 43.2799 54.3897C43.0196 54.3959 42.8034 54.1617 42.7972 53.8663C42.791 53.5708 42.9971 53.3252 43.2573 53.319C47.9462 53.1884 53.5932 49.9392 57.0515 45.3669C60.4448 40.8814 61.7122 35.0885 57.7058 29.7354C55.867 27.2786 53.3499 26.9052 50.8515 27.5096C48.2523 28.1387 45.6681 29.8125 43.8066 31.419C43.3023 31.8532 42.7931 32.2843 42.289 32.7238C41.0149 34.7389 39.5592 36.3162 38.0657 37.1747C37.6947 37.3864 37.4901 37.1202 37.4359 37.0424C37.3619 36.9364 37.2834 36.761 37.3638 36.5125C37.3789 36.4659 37.4185 36.3767 37.4941 36.2742C37.5977 36.1361 37.8328 35.8762 37.9288 35.7515C38.3245 35.2335 38.7661 34.7477 39.2012 34.2752C39.9573 33.4518 40.772 32.702 41.6022 31.9755C41.7138 31.7951 41.8239 31.6131 41.9324 31.4277C43.8735 28.1008 45.312 23.7288 45.6674 19.614C46.0513 15.1674 45.1834 11.0095 42.1958 8.91792C40.6408 7.82916 38.6433 7.60922 36.5849 7.87913C33.4035 8.29621 30.0749 9.89352 27.906 11.4805C26.5813 12.4499 25.3337 13.6329 24.2779 14.9641C23.9275 15.4059 23.6161 15.8969 23.3193 16.3866C23.2867 16.4405 23.2423 16.5196 23.193 16.6101C23.0686 16.8787 22.9348 17.1391 22.7915 17.3907C22.716 17.5231 22.6607 17.5737 22.6506 17.5828C22.3865 17.8227 22.169 17.6743 22.075 17.5951C22.0471 17.5716 21.7633 17.3167 21.9373 16.9156C21.9728 16.8343 22.1995 16.3948 22.3819 16.0625C23.6965 13.1976 23.8326 9.3722 22.8573 6.39802C22.2388 4.51266 21.1707 2.96654 19.6418 2.27671C18.6251 1.81814 17.41 1.74339 16.001 2.17723C12.6029 3.22356 9.91613 5.81324 7.59632 8.88232C5.22319 12.0219 3.23451 15.6658 1.29092 18.7484C1.13948 18.9887 0.844741 19.0441 0.633253 18.872C0.421781 18.7 0.373063 18.3652 0.524654 18.1248C2.48309 15.0183 4.48973 11.3486 6.88113 8.18458C9.32602 4.95017 12.1733 2.24619 15.7546 1.1435C17.3939 0.638659 18.8072 0.747697 19.99 1.28122C21.7599 2.07967 23.0248 3.84101 23.7406 6.02376C24.4887 8.30477 24.6326 11.0434 24.154 13.555Z" fill="#42A157"/>
</svg>
