<svg width="120" height="120" viewBox="0 0 120 120" fill="none" xmlns="http://www.w3.org/2000/svg">
<mask id="mask0_146_234" style="mask-type:alpha" maskUnits="userSpaceOnUse" x="0" y="0" width="120" height="120">
<rect width="120" height="120" fill="#D9D9D9"/>
</mask>
<g mask="url(#mask0_146_234)">
<path d="M47 97.75C45.5 95 44.1875 92.1458 43.0625 89.1875C41.9375 86.2292 41 83.1667 40.25 80H25.5C27.9167 84.1667 30.9375 87.7917 34.5625 90.875C38.1875 93.9583 42.3333 96.25 47 97.75ZM21.25 70H38.25C38 68.3333 37.8125 66.6875 37.6875 65.0625C37.5625 63.4375 37.5 61.75 37.5 60C37.5 58.25 37.5625 56.5625 37.6875 54.9375C37.8125 53.3125 38 51.6667 38.25 50H21.25C20.8333 51.6667 20.5208 53.3125 20.3125 54.9375C20.1042 56.5625 20 58.25 20 60C20 61.75 20.1042 63.4375 20.3125 65.0625C20.5208 66.6875 20.8333 68.3333 21.25 70ZM25.5 40H40.25C41 36.8333 41.9375 33.7708 43.0625 30.8125C44.1875 27.8542 45.5 25 47 22.25C42.3333 23.75 38.1875 26.0417 34.5625 29.125C30.9375 32.2083 27.9167 35.8333 25.5 40ZM50.5 40H69.5C68.5 36.3333 67.2083 32.875 65.625 29.625C64.0417 26.375 62.1667 23.25 60 20.25C57.8333 23.25 55.9583 26.375 54.375 29.625C52.7917 32.875 51.5 36.3333 50.5 40ZM79.75 40H94.5C92.0833 35.8333 89.0625 32.2083 85.4375 29.125C81.8125 26.0417 77.6667 23.75 73 22.25C74.5 25 75.8125 27.8542 76.9375 30.8125C78.0625 33.7708 79 36.8333 79.75 40ZM60 110C53.1667 110 46.7083 108.688 40.625 106.062C34.5417 103.438 29.2292 99.8542 24.6875 95.3125C20.1458 90.7708 16.5625 85.4583 13.9375 79.375C11.3125 73.2917 10 66.8333 10 60C10 53.0833 11.3125 46.6042 13.9375 40.5625C16.5625 34.5208 20.1458 29.2292 24.6875 24.6875C29.2292 20.1458 34.5417 16.5625 40.625 13.9375C46.7083 11.3125 53.1667 10 60 10C66.9167 10 73.3958 11.3125 79.4375 13.9375C85.4792 16.5625 90.7708 20.1458 95.3125 24.6875C99.8542 29.2292 103.438 34.5208 106.062 40.5625C108.688 46.6042 110 53.0833 110 60C110 60.8333 109.979 61.6667 109.938 62.5C109.896 63.3333 109.833 64.1667 109.75 65H99.625C99.7917 64.1667 99.8958 63.3542 99.9375 62.5625C99.9792 61.7708 100 60.9167 100 60C100 58.25 99.8958 56.5625 99.6875 54.9375C99.4792 53.3125 99.1667 51.6667 98.75 50H81.75C82 51.6667 82.1875 53.3125 82.3125 54.9375C82.4375 56.5625 82.5 58.25 82.5 60V62.5625C82.5 63.3542 82.4583 64.1667 82.375 65H72.375C72.4583 64.1667 72.5 63.3542 72.5 62.5625V60C72.5 58.25 72.4375 56.5625 72.3125 54.9375C72.1875 53.3125 72 51.6667 71.75 50H48.25C48 51.6667 47.8125 53.3125 47.6875 54.9375C47.5625 56.5625 47.5 58.25 47.5 60C47.5 61.75 47.5625 63.4375 47.6875 65.0625C47.8125 66.6875 48 68.3333 48.25 70H65V80H50.5C51.5 83.6667 52.7917 87.125 54.375 90.375C55.9583 93.625 57.8333 96.75 60 99.75C60.9167 98.4167 61.7917 97.0625 62.625 95.6875C63.4583 94.3125 64.25 92.9167 65 91.5V109.75C64.1667 109.833 63.3542 109.896 62.5625 109.938C61.7708 109.979 60.9167 110 60 110ZM99.75 106.875L85 92.125V103.25H75V75H103.25V85H92L106.75 99.75L99.75 106.875Z" fill="#1C1B1F"/>
</g>
</svg>
