<svg width="48" height="48" viewBox="0 0 48 48" fill="none" xmlns="http://www.w3.org/2000/svg">
<mask id="mask0_102_63" style="mask-type:alpha" maskUnits="userSpaceOnUse" x="0" y="0" width="48" height="48">
<rect width="48" height="48" fill="#D9D9D9"/>
</mask>
<g mask="url(#mask0_102_63)">
<path d="M24 1.69995L42.5999 12.85C43.2666 13.2166 43.7166 13.6916 43.95 14.275C44.1833 14.8583 44.2999 15.45 44.2999 16.05V39C44.2999 39.9 43.9666 40.6916 43.2999 41.375C42.6333 42.0583 41.8333 42.4 40.9 42.4H7.09995C6.19995 42.4 5.40828 42.0583 4.72495 41.375C4.04162 40.6916 3.69995 39.9 3.69995 39V16.05C3.69995 15.45 3.82495 14.8583 4.07495 14.275C4.32495 13.6916 4.76662 13.2166 5.39995 12.85L24 1.69995ZM24 25.2999L40.5999 15.55L24 5.54995L7.39995 15.55L24 25.2999ZM24 28.75L7.09995 18.85V39H40.9V18.85L24 28.75Z" fill="white"/>
</g>
</svg>
