<svg width="53" height="46" viewBox="0 0 53 46" fill="none" xmlns="http://www.w3.org/2000/svg">
<path d="M8 45.3333V24H0L26.6667 0L40 11.8V4H45.3333V16.7333L53.3333 24H45.3333V45.3333H30V29.3333H23.3333V45.3333H8ZM12 41.3333H19.3333V25.3333H34V41.3333H41.3333V18.6L26.6667 5.26667L12 18.6V41.3333ZM21 18H32.3333C32.3333 16.5333 31.7667 15.3222 30.6333 14.3667C29.5 13.4111 28.1778 12.9333 26.6667 12.9333C25.1556 12.9333 23.8333 13.4111 22.7 14.3667C21.5667 15.3222 21 16.5333 21 18Z" fill="white"/>
</svg>
